Coordinates
version=1
nRows=24
nColumns=22
inDegrees=yes

Units are S.I. units (second, meters, Newtons, ...)
If the header above contains a line with 'inDegrees', this indicates whether rotational values are in degrees (yes) or radians (no).

endheader
time	pelvis_tilt	pelvis_list	pelvis_rotation	pelvis_tx	pelvis_ty	pelvis_tz	hip_flexion_r	hip_adduction_r	hip_rotation_r	knee_angle_r	ankle_angle_r	subtalar_angle_r	hip_flexion_l	hip_adduction_l	hip_rotation_l	knee_angle_l	ankle_angle_l	subtalar_angle_l	lumbar_extension	lumbar_bending	lumbar_rotation
      3.93000000	     -6.16019649	     -0.68758805	    -62.93522287	      0.09783155	      0.95514724	      0.76699035	     26.56272427	      1.73904244	    -18.09024571	    -23.65123231	     -1.40944382	      0.78987073	     -4.19204310	     -9.77947281	      6.58930060	    -32.53547913	     10.00361965	      9.49261957	      1.00138534	      7.47024871	    -11.45699471
      3.94000000	     -6.22825820	     -0.58337171	    -63.11812407	      0.09829540	      0.95628319	      0.77410069	     26.18824297	      2.02053302	    -17.97380871	    -23.50849470	     -1.03692053	      0.86044783	     -3.08549606	     -9.82948269	      6.39674758	    -34.64339222	      8.98592424	      9.33110226	      1.10195037	      7.58403009	    -11.36000212
      3.95000000	     -6.33345340	     -0.52715514	    -63.33850935	      0.09867777	      0.95739302	      0.78108365	     25.75629919	      2.37638275	    -17.84325142	    -23.29706145	     -0.69695872	      0.93604757	     -1.96939698	     -9.95478819	      6.12480622	    -36.78122360	      8.10211446	      9.10130373	      1.16054939	      7.76514059	    -11.21451014
      3.96000000	     -6.45808084	     -0.43204377	    -63.53312832	      0.09903418	      0.95835396	      0.78780067	     25.38423760	      2.70333441	    -17.76841534	    -23.09637326	     -0.30422446	      1.09299085	     -0.75241966	    -10.07381682	      5.92656574	    -38.93143232	      7.30640822	      8.65305959	      1.25376339	      7.94757969	    -11.08210416
      3.97000000	     -6.62486409	     -0.37255844	    -63.75959147	      0.09930036	      0.95924946	      0.79437284	     24.98026090	      3.09989050	    -17.68645994	    -22.84407433	      0.05942601	      1.24789371	      0.46257600	    -10.26766701	      5.68271772	    -41.03401814	      6.67659733	      8.16299294	      1.31821163	      8.19214149	    -10.91096861
      3.98000000	     -6.82270435	     -0.32486080	    -63.99981246	      0.09949919	      0.96005717	      0.80076655	     24.57400081	      3.53396634	    -17.60770266	    -22.56317826	      0.41414915	      1.40401072	      1.68499340	    -10.50342858	      5.44986604	    -43.04653031	      6.20657212	      7.61447450	      1.37269648	      8.47398442	    -10.71486210
      3.99000000	     -7.04485701	     -0.29103961	    -64.25643290	      0.09963517	      0.96079926	      0.80699727	     24.15757093	      4.00415722	    -17.52197214	    -22.24907714	      0.75032356	      1.54786008	      2.89212384	    -10.77193964	      5.23341880	    -44.92063841	      5.90368571	      7.02665584	      1.41453216	      8.78533666	    -10.49451966
      4.00000000	     -7.27389238	     -0.27076962	    -64.53898811	      0.09970086	      0.96149747	      0.81307298	     23.72973660	      4.49822777	    -17.41080696	    -21.91414353	      1.06809650	      1.67356559	      4.05933626	    -11.05023460	      5.03549624	    -46.61796060	      5.75995989	      6.39069611	      1.43269584	      9.10891551	    -10.23035610
      4.01000000	     -7.50167227	     -0.25713423	    -64.84170851	      0.09970858	      0.96217503	      0.81899449	     23.28684747	      5.00717267	    -17.25777769	    -21.54699488	      1.34728874	      1.76649258	      5.18114403	    -11.31979843	      4.86853842	    -48.10856391	      5.77852772	      5.75412466	      1.43389177	      9.43075127	     -9.95429846
      4.02000000	     -7.70659490	     -0.24069708	    -65.17447211	      0.09967536	      0.96284060	      0.82478160	     22.84484219	      5.49628890	    -17.09278657	    -21.18747426	      1.62724880	      1.84252883	      6.23766548	    -11.54593802	      4.72974125	    -49.36229157	      5.93970180	      5.01616300	      1.42033788	      9.72553724	     -9.61145050
      4.03000000	     -7.89659216	     -0.21740722	    -65.51664678	      0.09959401	      0.96352424	      0.83042268	     22.38297070	      5.98402533	    -16.86053009	    -20.77467845	      1.84147280	      1.88322095	      7.24231679	    -11.72685128	      4.65316524	    -50.37447356	      6.23767273	      4.39634672	      1.40309482	      9.99568539	     -9.27448387
      4.04000000	     -8.04279965	     -0.18876852	    -65.87763178	      0.09951274	      0.96419459	      0.83589209	     21.94226900	      6.41446454	    -16.62304484	    -20.42106164	      2.07253120	      1.91496427	      8.17362981	    -11.83158984	      4.61173303	    -51.14530553	      6.66408374	      3.62562339	      1.36352355	     10.22061222	     -8.92124326
      4.05000000	     -8.16163277	     -0.14648600	    -66.24070586	      0.09943160	      0.96488559	      0.84122826	     21.49439243	      6.81522318	    -16.34561596	    -20.04258468	      2.26071148	      1.92948077	      9.04275258	    -11.86725995	      4.63485206	    -51.66302640	      7.18982829	      2.95772402	      1.33030152	     10.40730082	     -8.56823184
      4.06000000	     -8.25868192	     -0.09428687	    -66.61791160	      0.09934183	      0.96557398	      0.84642317	     21.05933246	      7.18880222	    -16.03207429	    -19.67823651	      2.42260333	      1.92474651	      9.85204375	    -11.85084267	      4.69600887	    -51.94801037	      7.82269317	      2.55989694	      1.29741794	     10.56636218	     -8.19893634
      4.07000000	     -8.30888471	     -0.03345723	    -66.95419500	      0.09935644	      0.96628215	      0.85146604	     20.61180205	      7.49187016	    -15.73434516	    -19.30561424	      2.57338117	      1.90527195	     10.58997691	    -11.73808326	      4.85191301	    -51.98765161	      8.45268967	      1.82077253	      1.26934326	     10.67343559	     -7.90868370
      4.08000000	     -8.35308255	      0.03982653	    -67.30283927	      0.09936041	      0.96695786	      0.85639805	     20.19248127	      7.77755769	    -15.43776446	    -18.95786925	      2.70921135	      1.87294883	     11.27725703	    -11.60358039	      5.02429147	    -51.81582721	      9.17601633	      1.53406194	      1.25667142	     10.76648300	     -7.59521122
      4.09000000	     -8.37855365	      0.11106342	    -67.63096615	      0.09941191	      0.96763079	      0.86118957	     19.76931846	      8.03355082	    -15.13811804	    -18.60800535	      2.81467066	      1.81284083	     11.90302196	    -11.43364387	      5.24221856	    -51.44050403	      9.88362879	      1.21610033	      1.24234912	     10.84083961	     -7.32723291
      4.10000000	     -8.38306256	      0.18418582	    -67.93806133	      0.09949947	      0.96828227	      0.86584156	     19.35307863	      8.25321028	    -14.85375832	    -18.27041607	      2.90844859	      1.73241414	     12.47697106	    -11.23030185	      5.49853954	    -50.88570978	     10.58312923	      0.98752944	      1.22820445	     10.88841103	     -7.10115945
      4.11000000	     -8.37920450	      0.25619379	    -68.23377608	      0.09962120	      0.96892051	      0.87036510	     18.94499450	      8.45398809	    -14.56659764	    -17.94418078	      2.98829787	      1.62724845	     12.99536495	    -11.01210850	      5.78299434	    -50.15579214	     11.24606827	      0.85272635	      1.21593574	     10.92690685	     -6.89746917
      4.12000000	     -8.36826348	      0.35146830	    -68.49181389	      0.09980392	      0.96949645	      0.87471932	     18.58457014	      8.61227006	    -14.31496727	    -17.65245032	      3.07540106	      1.56523164	     13.50345545	    -10.76454527	      6.12219949	    -49.28359042	     11.87681894	      0.81334437	      1.23326147	     10.94644866	     -6.76585482
      4.13000000	     -8.33618647	      0.41416000	    -68.81012365	      0.09996796	      0.97010967	      0.87902534	     18.18207969	      8.77701359	    -13.98975444	    -17.35819431	      3.14438434	      1.43158815	     13.89743450	    -10.53065990	      6.39297272	    -48.26123154	     12.46658250	      0.89379429	      1.20273083	     10.96052753	     -6.54708333
      4.14000000	     -8.28007822	      0.49105095	    -69.08810784	      0.10022902	      0.97068507	      0.88316210	     17.81202931	      8.88481895	    -13.68968683	    -17.10161005	      3.23523192	      1.31853425	     14.26492227	    -10.23934799	      6.74873494	    -47.12263255	     13.00119701	      1.05405029	      1.18488708	     10.94299404	     -6.39762022
      4.15000000	     -8.20654457	      0.57493508	    -69.36759937	      0.10054053	      0.97123122	      0.88717549	     17.46383195	      8.96083006	    -13.37156291	    -16.87604888	      3.34208983	      1.23285585	     14.58991589	     -9.91365268	      7.14484225	    -45.88292188	     13.48470488	      1.27092925	      1.16988331	     10.90465671	     -6.24759357
      4.16000000	     -8.10756243	      0.66514100	    -69.64933574	      0.10092883	      0.97175928	      0.89107699	     17.13346731	      8.99472670	    -13.04082300	    -16.68361874	      3.46618617	      1.17378271	     14.86319213	     -9.54082955	      7.59238573	    -44.54888073	     13.92391669	      1.52354985	      1.15639422	     10.84111745	     -6.09986304
